Coordinates
version=1
nRows=11
nColumns=36
inDegrees=yes

Units are S.I. units (second, meters, Newtons, ...)
If the header above contains a line with 'inDegrees', this indicates whether rotational values are in degrees (yes) or radians (no).

endheader
time	pelvis_tilt	pelvis_list	pelvis_rotation	pelvis_tx	pelvis_ty	pelvis_tz	hip_flexion_r	hip_adduction_r	hip_rotation_r	knee_angle_r	knee_angle_r_beta	ankle_angle_r	subtalar_angle_r	mtp_angle_r	hip_flexion_l	hip_adduction_l	hip_rotation_l	knee_angle_l	knee_angle_l_beta	ankle_angle_l	subtalar_angle_l	mtp_angle_l	lumbar_extension	lumbar_bending	lumbar_rotation	arm_flex_r	arm_add_r	arm_rot_r	elbow_flex_r	pro_sup_r	arm_flex_l	arm_add_l	arm_rot_l	elbow_flex_l	pro_sup_l
      2.68333330	    -12.22544198	     -0.42148799	      3.27747943	      0.65053455	      1.06967044	      0.03398431	     28.49504743	     -5.20423452	     -9.55603524	      7.04879469	      0.12302468	    -38.98896307	      0.38965770	     -7.49999987	     30.90555947	     -4.89369093	     -8.88537654	     12.72716685	      0.22213097	    -33.72899937	      1.02753397	     -7.49999987	     -0.97365208	     -0.07862659	      0.88204931	     54.24672781	    -20.10188411	      9.68571826	    122.16085564	     89.86437780	     70.05245609	    -20.41068525	     35.27758319	     98.67159286	     90.20080097
      2.70000000	    -12.49231069	     -0.86524799	      2.94876985	      0.66648012	      1.03130189	      0.03473628	     29.27947537	     -4.32698153	    -11.01676844	      6.00007077	      0.10472099	    -40.90531089	      0.93978423	     -7.49999987	     31.41701817	     -5.74953702	     -9.85761799	     10.98269285	      0.19168415	    -35.96785863	      0.12180458	     -7.49999987	     -0.81395719	      0.36742117	      2.78104140	     40.76620394	    -21.72440766	      7.30985907	    124.35176981	     89.42337390	     57.32299536	    -20.69839762	     32.44641086	    103.44250541	     89.51363996
      2.71666670	    -12.55760126	     -1.26174921	      2.37119781	      0.68467678	      0.98450175	      0.03486771	     29.79044574	     -3.40364075	    -12.32931061	      5.88593060	      0.10272887	    -42.60839371	      1.01563564	     -7.49999987	     31.93268649	     -6.69567102	     -9.93122963	     10.30661583	      0.17988438	    -38.48294908	     -0.73309269	     -7.49999987	     -1.38956841	      0.53653548	      4.64865251	     28.70728054	    -21.24354011	      5.86670657	    123.11621239	     88.68709060	     44.48782238	    -20.39356484	     28.50888089	    104.92036343	     88.56667183
      2.73333330	    -12.56985881	     -1.34452872	      2.41131725	      0.70123696	      0.94130270	      0.03425518	     30.31225017	     -3.18086184	    -13.31816117	      6.47056027	      0.11293258	    -41.43403748	      0.69252717	     -7.49999987	     32.72675562	     -7.01556727	    -10.35079407	     11.27849449	      0.19684686	    -38.05670600	     -1.76352101	     -7.49999987	     -2.94268378	      1.32559209	     -0.08549018	     21.88232225	    -17.15369126	     10.34323631	    118.29983692	     85.63707505	     25.40530831	    -22.47817636	     16.84930960	    109.94227448	     85.58193565
      2.75000000	    -12.86227456	     -1.56250040	      3.09037558	      0.71313883	      0.90169376	      0.03389534	     32.17181551	     -3.40542148	    -13.01280539	     11.44980252	      0.19983675	    -31.98101161	     -1.57979386	     -7.49999987	     35.49075136	     -7.20197620	     -9.83649359	     17.75097723	      0.30981300	    -29.36912343	     -5.67339122	     -7.49999987	     -5.24796493	      1.54195215	     -5.65608665	     16.54289114	    -14.18222469	     12.91147611	    108.35467584	     88.93038095	      5.66769527	    -19.94739079	     -0.84385848	    108.94814883	     90.43273801
      2.76666670	    -13.54396852	     -1.99118936	      3.24864689	      0.72649344	      0.85344906	      0.03294695	     37.16651030	     -3.80555291	    -10.25336321	     23.11347805	      0.40340629	    -17.08186605	     -6.79136356	     -7.49999987	     41.20183182	     -8.35953589	     -7.37140066	     29.84938440	      0.52097004	    -16.16525560	    -10.20599834	     -7.49999987	     -6.81377617	      1.34574577	     -6.16805993	      7.98637761	    -12.45600750	      9.81564063	     96.56421774	     91.51000023	     -3.04881933	    -15.23074982	     -9.35752297	     95.60038008	     94.20496053
      2.78333330	    -14.75546660	     -2.39925385	      2.96624013	      0.73577402	      0.80963075	      0.03966219	     44.31492615	     -3.72547651	     -7.22381755	     37.24633030	      0.65007110	      0.29792313	    -10.28546453	     -7.49999987	     48.64252501	     -9.96712559	     -4.96899924	     44.41101327	      0.77511841	     -1.21186870	    -12.51962634	     -7.49999987	     -7.20361068	      1.07517994	     -4.88062482	      1.49227423	    -10.40000596	      3.85869200	     80.47918565	     96.31525014	     -5.49505974	    -12.60290391	    -16.03093138	     77.83276149	     98.26496810
      2.80000000	    -15.60937052	     -2.42843757	      3.20296696	      0.74131355	      0.77451055	      0.02842319	     51.22534309	     -4.38709526	     -5.15032456	     51.10330357	      0.89192091	     14.33973231	    -11.35176501	     -7.49999987	     55.18171921	     -9.95565300	     -3.14431948	     57.17510180	      0.99789378	     11.60690044	    -12.66469429	     -7.49999987	     -7.90389945	      0.88926255	     -4.41869325	     -2.44206024	     -8.90492881	     -3.78281729	     61.90011711	     99.52103628	     -6.77162784	     -9.67796659	    -19.63277365	     59.58162742	    101.42144681
      2.81666670	    -15.65837124	     -2.34568635	      3.04829793	      0.73940655	      0.75417243	      0.02932445	     56.61507782	     -4.55321287	     -3.79871320	     61.73724023	      1.07751811	     23.71147923	    -10.58470861	     -7.49999987	     59.93910176	     -9.99124316	     -1.88789115	     66.55526904	      1.16160858	     19.66201403	    -12.32542343	     -7.49999987	    -10.85194635	      0.75807988	     -4.24365809	     -1.82639302	     -7.25016827	     -8.83640307	     41.60405648	     97.29108604	     -6.89725077	     -8.07971188	    -23.21282998	     42.83412604	     99.18325346
      2.83333330	    -15.61434193	     -2.23537311	      2.82905926	      0.73193920	      0.73810277	      0.02791720	     61.28337844	     -4.70544984	     -2.81972833	     69.68057890	      1.21615553	     28.53591058	     -9.88098317	     -7.49999987	     63.62624539	     -9.52355210	     -0.59733135	     72.90233779	      1.27238583	     22.41382056	    -14.22350909	     -7.49999987	    -15.20027226	      1.53582941	     -4.67250310	     -0.81626885	     -6.64809828	    -11.22882449	     23.60509860	     95.73287406	     -8.18886134	     -6.79100861	    -22.34121855	     25.80775649	     98.68416581
      2.85000000	    -16.02331464	     -2.02188472	      2.73747552	      0.73481983	      0.72169736	      0.02604017	     64.64915576	     -5.02789785	     -2.35078929	     74.72103932	      1.30412816	     31.12479741	     -9.23901218	     -7.49999987	     66.29800585	     -8.77458060	      0.56729607	     76.60937862	      1.33708589	     24.05812866	    -14.51672055	     -7.49999987	    -19.48830026	      1.63382763	     -4.72950432	     -2.47068762	     -8.42623277	    -12.95038389	     17.28456206	     85.11794699	     -8.35808455	     -7.17379547	      0.16573778	      7.22554646	     97.67202497
